<?xml version="1.0" encoding="UTF-8" standalone="no"?>
<!-- Created with Inkscape (http://www.inkscape.org/) -->

<svg
   width="297mm"
   height="210mm"
   viewBox="0 0 297 210"
   version="1.1"
   id="svg5"
   inkscape:version="1.3 (0e150ed6c4, 2023-07-21)"
   sodipodi:docname="Inkplate 10 mount - Bottom.svg"
   xmlns:inkscape="http://www.inkscape.org/namespaces/inkscape"
   xmlns:sodipodi="http://sodipodi.sourceforge.net/DTD/sodipodi-0.dtd"
   xmlns="http://www.w3.org/2000/svg"
   xmlns:svg="http://www.w3.org/2000/svg">
  <sodipodi:namedview
     id="namedview7"
     pagecolor="#505050"
     bordercolor="#eeeeee"
     borderopacity="1"
     inkscape:showpageshadow="0"
     inkscape:pageopacity="0"
     inkscape:pagecheckerboard="0"
     inkscape:deskcolor="#505050"
     inkscape:document-units="mm"
     showgrid="false"
     inkscape:zoom="0.67045543"
     inkscape:cx="459.38923"
     inkscape:cy="441.49094"
     inkscape:window-width="1920"
     inkscape:window-height="1017"
     inkscape:window-x="2675"
     inkscape:window-y="1121"
     inkscape:window-maximized="1"
     inkscape:current-layer="layer1" />
  <defs
     id="defs2" />
  <g
     inkscape:label="Layer 1"
     inkscape:groupmode="layer"
     id="layer1">
    <path
       id="rect615"
       style="fill:#b3b3b3;stroke-width:1.19975"
       d="M 9.9999064,0 V 2.5001058 C 9.9997379,5.2612912 7.761397,7.4996321 5.0002116,7.4998006 H 0 V 169.50025 h 5.0002116 c 2.7611835,1.7e-4 4.9995236,2.23851 4.9996948,4.99969 v 4.9997 H 220.99995 v -4.9997 c 1.7e-4,-2.76138 2.23883,-4.99981 5.00021,-4.99969 h 4.99969 V 7.4998006 h -4.99969 c -2.76139,1.16e-4 -5.00004,-2.2383082 -5.00021,-4.9996948 V 0 Z M 13.750065,7.4998006 H 217.24979 c -9e-5,2.0711922 1.67897,3.7502464 3.75016,3.7501584 V 165.75009 c -2.07119,-9e-5 -3.75025,1.67897 -3.75016,3.75016 H 13.750065 c 8.8e-5,-2.07119 -1.678966,-3.75025 -3.7501586,-3.75016 V 11.249959 c 2.0711916,8.8e-5 3.7502456,-1.6789668 3.7501586,-3.7501584 z"
       sodipodi:nodetypes="cccccccccccccccccccccccccc" />
    <text
       xml:space="preserve"
       style="font-style:normal;font-weight:normal;font-size:3.88056px;line-height:1.25;font-family:sans-serif;fill:#ffff00;fill-opacity:1;stroke:none;stroke-width:0.264583"
       x="232.90298"
       y="5.27072"
       id="text885"><tspan
         sodipodi:role="line"
         id="tspan883"
         style="font-size:3.88056px;fill:#ffff00;stroke-width:0.264583"
         x="232.90298"
         y="5.27072">## Laser notes</tspan><tspan
         sodipodi:role="line"
         style="font-size:3.88056px;fill:#ffff00;stroke-width:0.264583"
         x="232.90298"
         y="10.12142"
         id="tspan889">* Grey - Cut (outline of Inkplate 10)</tspan><tspan
         sodipodi:role="line"
         style="font-size:3.88056px;fill:#ffff00;stroke-width:0.264583"
         x="232.90298"
         y="14.97212"
         id="tspan951">* Yellow - Notes only</tspan><tspan
         sodipodi:role="line"
         style="font-size:3.88056px;fill:#ffff00;stroke-width:0.264583"
         x="232.90298"
         y="19.822821"
         id="tspan887" /></text>
  </g>
</svg>
